<svg xmlns="http://www.w3.org/2000/svg" version="1.1" xmlns:xlink="http://www.w3.org/1999/xlink" xmlns:svgjs="http://svgjs.com/svgjs" width="512" height="512" x="0" y="0" viewBox="0 0 100 100" style="enable-background:new 0 0 512 512" xml:space="preserve" class=""><g><g><path d="m83.5 100h-67c-9 0-16.5-7.6-16.5-16.7v-36.5c0-4.6 2-9.1 5.5-12.2l33.5-30.4c6.5-5.6 15.5-5.6 22 0l33.5 30.4c3.5 3 5.5 7.6 5.5 12.2v36.5c-.5 9.6-7.5 16.7-16.5 16.7zm-33.5-89.7c-1.5 0-3 .5-4.5 1.5l-33.5 30.4c-1.5 1-2 3-2 5.1v36.5c0 3.5 3 6.6 6.5 6.6h66.5c3.5 0 6.5-3 6.5-6.6v-36.5c0-2-1-3.5-2-5.1l-33.5-30.4c-1-1-2.5-1.5-4-1.5z" fill="#ffffff" data-original="#000000" class=""></path></g></g></svg>