<svg xmlns="http://www.w3.org/2000/svg" version="1.1" xmlns:xlink="http://www.w3.org/1999/xlink" xmlns:svgjs="http://svgjs.com/svgjs" width="512" height="512" x="0" y="0" viewBox="0 0 24 24" style="enable-background:new 0 0 512 512" xml:space="preserve"><g><path d="M7.2 14.2c.8-1 1.6-1.8 2.4-2.4 1.5-1.3 2.8-1.8 2.8-1.8s-.7 1.1-1.8 2.7c-.2.4-.5.8-.8 1.3-.3.4-.5.9-.8 1.4s-.5 1-.8 1.5c-.2.5-.6 1.1-.8 1.6s-.5 1.1-.7 1.6c-.1.2-.2.5-.3.7 3.3 1.9 7.7 1.5 10.4-1.4 5-5.4.6-7.7 5.2-17.2 0 0-10.2-2.1-17.5 5.1-3.3 3.3-3.3 8.6 0 12 .2-.6.4-1.2.7-1.8.5-1.2 1.2-2.4 2-3.3z" fill="#8ab333" data-original="#000000"></path></g></svg>