<?xml version="1.0" encoding="utf-8"?>
<!-- Generator: Adobe Illustrator 12.0.0, SVG Export Plug-In . SVG Version: 6.00 Build 51448)  -->
<!DOCTYPE svg PUBLIC "-//W3C//DTD SVG 1.1//EN" "http://www.w3.org/Graphics/SVG/1.1/DTD/svg11.dtd" [
	<!ENTITY ns_svg "http://www.w3.org/2000/svg">
	<!ENTITY ns_xlink "http://www.w3.org/1999/xlink">
]>
<svg  version="1.1" id="Ebene_1" xmlns="&ns_svg;" xmlns:xlink="&ns_xlink;" width="491.888" height="482.386"
	 viewBox="0 0 491.888 482.386" overflow="visible" enable-background="new 0 0 491.888 482.386" xml:space="preserve">
<path fill="#ECDB2C" d="M229.329,118.855c0.641,4.517-2.998,8.769-8.129,9.498l0,0c-5.131,0.73-9.813-2.34-10.455-6.856
	L195.951,17.431c-0.642-4.517,2.999-8.769,8.13-9.497l0,0c5.131-0.73,9.812,2.34,10.454,6.855L229.329,118.855z"/>
<path fill="#ECDB2C" d="M166.982,139.954c2.806,3.597,1.769,9.096-2.318,12.285l0,0c-4.085,3.189-9.674,2.859-12.48-0.737
	L87.517,68.636c-2.806-3.597-1.768-9.097,2.319-12.285l0,0c4.085-3.189,9.673-2.859,12.479,0.737L166.982,139.954z"/>
<path fill="#ECDB2C" d="M123.413,189.88c4.237,1.69,6.116,6.961,4.196,11.776l0,0c-1.919,4.815-6.912,7.349-11.149,5.659
	l-97.635-38.935c-4.237-1.69-6.115-6.962-4.195-11.777l0,0c1.919-4.815,6.911-7.348,11.148-5.659L123.413,189.88z"/>
<path fill="#ECDB2C" d="M111.115,255.459c4.519-0.626,8.757,3.028,9.467,8.162l0,0c0.712,5.135-2.375,9.806-6.894,10.431
	L9.569,288.466c-4.519,0.626-8.757-3.029-9.467-8.163l0,0c-0.711-5.136,2.375-9.805,6.894-10.431L111.115,255.459z"/>
<path fill="#ECDB2C" d="M132.032,318.147c3.6-2.803,9.098-1.756,12.28,2.335l0,0c3.184,4.092,2.845,9.68-0.756,12.479
	l-82.967,64.537c-3.6,2.802-9.098,1.755-12.28-2.337l0,0c-3.184-4.093-2.844-9.679,0.756-12.479L132.032,318.147z"/>
<path fill="#ECDB2C" d="M182.125,361.415c1.739-4.218,7.033-6.033,11.824-4.056l0,0c4.792,1.978,7.267,6.999,5.526,11.215
	l-40.093,97.165c-1.739,4.217-7.034,6.032-11.825,4.054l0,0c-4.793-1.978-7.266-6.998-5.527-11.214L182.125,361.415z"/>
<path fill="#ECDB2C" d="M341.727,7.54l-67.971,210.346l0.001-0.001c3.221,5.279,5.077,11.482,5.077,18.118
	c0,19.237-15.596,34.833-34.834,34.833c-19.237,0-34.833-15.596-34.833-34.833c0-17.578,13.021-32.115,29.942-34.492l0.327-0.034
	L331.107,2.903l-0.005,0.006C332.111,1.17,333.994,0,336.149,0c3.222,0,5.833,2.612,5.833,5.833c0,0.646-0.105,1.268-0.3,1.849
	L341.727,7.54z"/>
<path fill="#89B232" d="M437.451,81.859l-95.552,79.099l0.005-0.007c16.291,21.073,25.984,47.506,25.984,76.203
	c0,61.965-45.196,113.374-104.423,123.058l-0.003-0.009l20.658,121.132l0.686,1.051c117.541-19.802,207.082-122.06,207.082-245.231
	c0-58.398-20.128-112.095-53.825-154.532L437.451,81.859z"/>
</svg>
