<?xml version="1.0" encoding="utf-8"?>
<!-- Generator: Adobe Illustrator 26.1.0, SVG Export Plug-In . SVG Version: 6.00 Build 0)  -->
<svg version="1.1" id="Ebene_1" xmlns="http://www.w3.org/2000/svg" xmlns:xlink="http://www.w3.org/1999/xlink" x="0px" y="0px"
	 viewBox="0 0 463 463" style="enable-background:new 0 0 463 463;" xml:space="preserve">
<style type="text/css">
	.st0{fill:#A3D4F7;}
	.st1{fill:#B7F9FE;}
	.st2{fill:#60A2D7;}
</style>
<path class="st0" d="M367.2,335.8h8c33.5,0,64-19,78.8-49.1c14.8-30,11.2-65.9-9.2-92.4c-20.4-26.5-54.2-39.1-87-32.5
	c-4.3-21.5-18.3-39.9-37.9-49.9c-19.6-9.9-42.7-10.4-62.6-1.1c-18-49.7-73-75.4-122.7-57.3c-49.7,18-75.4,73-57.3,122.7
	c-43.5,1.4-77.9,37.4-77.3,81c0.7,43.6,36.1,78.5,79.7,78.6"/>
<g>
	<path class="st1" d="M175.5,357.8h-12.7l10.3-10.3c3-3.1,3-8.1-0.1-11.2c-3.1-3.1-8.1-3.1-11.2-0.1l-10.3,10.3v-12.7
		c0-4.4-3.6-8-8-8c-4.4,0-8,3.6-8,8v12.7l-10.3-10.3c-3.1-3-8.1-3-11.2,0.1c-3.1,3.1-3.1,8.1-0.1,11.2l10.3,10.3h-12.7
		c-4.4,0-8,3.6-8,8s3.6,8,8,8h12.7L114,384.1c-2.1,2-2.9,5-2.2,7.8c0.7,2.8,2.9,5,5.7,5.7c2.8,0.7,5.8-0.1,7.8-2.2l10.3-10.3v12.7
		c0,4.4,3.6,8,8,8c4.4,0,8-3.6,8-8V385l10.3,10.3c3.1,3,8.1,3,11.2-0.1c3.1-3.1,3.1-8.1,0.1-11.2l-10.3-10.3h12.7c4.4,0,8-3.6,8-8
		S179.9,357.8,175.5,357.8z"/>
	<path class="st1" d="M335.2,311.8h-12.7l10.3-10.3c3-3.1,3-8.1-0.1-11.2s-8.1-3.1-11.2-0.1l-10.3,10.3v-12.7c0-4.4-3.6-8-8-8
		c-4.4,0-8,3.6-8,8v12.7L285,290.2c-3.1-3-8.1-3-11.2,0.1s-3.1,8.1-0.1,11.2l10.3,10.3h-12.7c-4.4,0-8,3.6-8,8s3.6,8,8,8H284
		l-10.3,10.3c-2.1,2-2.9,5-2.2,7.8c0.7,2.8,2.9,5,5.7,5.7c2.8,0.7,5.8-0.1,7.8-2.2l10.3-10.3v12.7c0,4.4,3.6,8,8,8c4.4,0,8-3.6,8-8
		v-12.7l10.3,10.3c3.1,3,8.1,3,11.2-0.1c3.1-3.1,3.1-8.1,0.1-11.2l-10.3-10.3h12.7c4.4,0,8-3.6,8-8S339.6,311.8,335.2,311.8z"/>
</g>
<g>
	<path class="st2" d="M281.9,415.6c0,17.6-14.3,31.9-31.9,31.9c-17.6,0-31.9-14.3-31.9-31.9c0-24,31.9-79.9,31.9-79.9
		S281.9,391.7,281.9,415.6z"/>
</g>
<g>
	<path class="st2" d="M231.5,287.9c0,17.6-14.3,31.9-31.9,31.9c-17.6,0-31.9-14.3-31.9-31.9c0-24,31.9-79.9,31.9-79.9
		S231.5,263.9,231.5,287.9z"/>
</g>
</svg>
